{
    "asset" : {
        "generator" : "Khronos glTF Blender I/O v0.9.36",
        "version" : "2.0"
    },
    "scene" : 0,
    "scenes" : [
        {
            "name" : "Scene",
            "nodes" : [
                1,
                2,
                3,
                4
            ]
        }
    ],
    "nodes" : [
        {
            "translation" : [
                0,
                -19.06848907470703,
                2.8792599096050253e-06
            ],
            "name" : "\u672a\u547d\u540d",
            "mesh" : 0
        },
        {
            "rotation" : [
                0.9238795638084412,
                0,
                -0.3826833963394165,
                8.636713744181179e-08
            ],
            "name" : "Obj3d66-828025-78-558",
            "scale" : [
                -0.0007808994268998504,
                -0.0007808992522768676,
                -0.0007808993104845285
            ],
            "children" : [
                0
            ]
        },
        {
            "name" : "EnvironmentAmbientLight",
            "scale" : [
                0.0010000000474974513,
                0.0010000000474974513,
                0.0010000000474974513
            ]
        },
        {
            "rotation" : [
                0.16907575726509094,
                0.7558803558349609,
                -0.27217137813568115,
                0.570947527885437
            ],
            "translation" : [
                4.076245307922363,
                5.903861999511719,
                -1.0054539442062378
            ],
            "name" : "Lamp"
        },
        {
            "rotation" : [
                0.483536034822464,
                0.33687159419059753,
                -0.20870360732078552,
                0.7804827094078064
            ],
            "translation" : [
                7.481131553649902,
                5.34366512298584,
                6.5076398849487305
            ],
            "name" : "Camera"
        }
    ],
    "materials" : [
        {
            "pbrMetallicRoughness" : {
                "baseColorTexture" : {
                    "texCoord" : 0,
                    "index" : 0
                }
            },
            "name" : "_1_-_Default"
        }
    ],
    "meshes" : [
        {
            "primitives" : [
                {
                    "indices" : 3,
                    "material" : 0,
                    "attributes" : {
                        "NORMAL" : 0,
                        "TEXCOORD_0" : 1,
                        "POSITION" : 2
                    }
                }
            ],
            "name" : "Obj3d66-828025-78-558"
        }
    ],
    "textures" : [
        {
            "sampler" : 0,
            "source" : 0
        }
    ],
    "images" : [
        {
            "mimeType" : "image/jpeg",
            "name" : "0_360qiuji.jpg",
            "bufferView" : 4
        }
    ],
    "accessors" : [
        {
            "componentType" : 5126,
            "type" : "VEC3",
            "count" : 11308,
            "bufferView" : 0
        },
        {
            "componentType" : 5126,
            "type" : "VEC2",
            "count" : 11308,
            "bufferView" : 1
        },
        {
            "componentType" : 5126,
            "type" : "VEC3",
            "max" : [
                89.03776550292969,
                94.06529998779297,
                89.03776550292969
            ],
            "count" : 11308,
            "min" : [
                -89.03776550292969,
                -55.92833709716797,
                -89.03776550292969
            ],
            "bufferView" : 2
        },
        {
            "componentType" : 5123,
            "type" : "SCALAR",
            "count" : 44454,
            "bufferView" : 3
        }
    ],
    "bufferViews" : [
        {
            "byteOffset" : 0,
            "byteLength" : 135696,
            "buffer" : 0
        },
        {
            "byteOffset" : 135696,
            "byteLength" : 90464,
            "buffer" : 0
        },
        {
            "byteOffset" : 226160,
            "byteLength" : 135696,
            "buffer" : 0
        },
        {
            "byteOffset" : 361856,
            "byteLength" : 88908,
            "buffer" : 0
        },
        {
            "byteOffset" : 450764,
            "byteLength" : 56757,
            "buffer" : 0
        }
    ],
    "samplers" : [
        {
            "wrapS" : 10497,
            "magFilter" : 9729,
            "minFilter" : 9986,
            "wrapT" : 10497
        }
    ],
    "buffers" : [
        {
            "byteLength" : 507524,
            "uri" : "data:application/octet-stream;base64,"
        }
    ]
}
