{
    "asset" : {
        "generator" : "Khronos glTF Blender I/O v0.9.36",
        "version" : "2.0"
    },
    "scene" : 0,
    "scenes" : [
        {
            "name" : "Scene",
            "nodes" : [
                0,
                1,
                2
            ]
        }
    ],
    "nodes" : [
        {
            "name" : "Light",
            "rotation" : [
                0.16907575726509094,
                0.7558803558349609,
                -0.27217137813568115,
                0.570947527885437
            ],
            "translation" : [
                4.076245307922363,
                5.903861999511719,
                -1.0054539442062378
            ]
        },
        {
            "name" : "Camera",
            "rotation" : [
                0.483536034822464,
                0.33687159419059753,
                -0.20870360732078552,
                0.7804827094078064
            ],
            "translation" : [
                7.358891487121582,
                4.958309173583984,
                6.925790786743164
            ]
        },
        {
            "mesh" : 0,
            "name" : "Obj3d66-828025-78-558",
            "rotation" : [
                -0.9238795042037964,
                0,
                0.3826834559440613,
                6.383685047239851e-08
            ],
            "scale" : [
                1,
                1,
                1
            ],
            "translation" : [
                0,
                -0.04240867868065834,
                0
            ]
        }
    ],
    "materials" : [
        {
            "doubleSided" : true,
            "name" : "01 - Default",
            "pbrMetallicRoughness" : {
                "baseColorTexture" : {
                    "index" : 0,
                    "texCoord" : 0
                },
                "metallicFactor" : 1,
                "roughnessFactor" : 0.858578622341156
            }
        }
    ],
    "meshes" : [
        {
            "name" : "Mesh",
            "primitives" : [
                {
                    "attributes" : {
                        "POSITION" : 0,
                        "NORMAL" : 1,
                        "TEXCOORD_0" : 2
                    },
                    "indices" : 3,
                    "material" : 0
                }
            ]
        }
    ],
    "textures" : [
        {
            "source" : 0
        }
    ],
    "images" : [
        {
            "bufferView" : 4,
            "mimeType" : "image/jpeg",
            "name" : "360qiuji"
        }
    ],
    "accessors" : [
        {
            "bufferView" : 0,
            "componentType" : 5126,
            "count" : 10094,
            "max" : [
                89.03776550292969,
                94.06529998779297,
                89.03776550292969
            ],
            "min" : [
                -89.03776550292969,
                -55.92833709716797,
                -89.03776550292969
            ],
            "type" : "VEC3"
        },
        {
            "bufferView" : 1,
            "componentType" : 5126,
            "count" : 10094,
            "type" : "VEC3"
        },
        {
            "bufferView" : 2,
            "componentType" : 5126,
            "count" : 10094,
            "type" : "VEC2"
        },
        {
            "bufferView" : 3,
            "componentType" : 5123,
            "count" : 44454,
            "type" : "SCALAR"
        }
    ],
    "bufferViews" : [
        {
            "buffer" : 0,
            "byteLength" : 121128,
            "byteOffset" : 0
        },
        {
            "buffer" : 0,
            "byteLength" : 121128,
            "byteOffset" : 121128
        },
        {
            "buffer" : 0,
            "byteLength" : 80752,
            "byteOffset" : 242256
        },
        {
            "buffer" : 0,
            "byteLength" : 88908,
            "byteOffset" : 323008
        },
        {
            "buffer" : 0,
            "byteLength" : 82896,
            "byteOffset" : 411916
        }
    ],
    "buffers" : [
        {
            "byteLength" : 494812,
            "uri" : "data:application/octet-stream;base64,"
        }
    ]
}
