{
    "asset" : {
        "version" : "2.0",
        "generator" : "Khronos glTF Blender I/O v0.9.36"
    },
    "scene" : 0,
    "scenes" : [
        {
            "name" : "Scene",
            "nodes" : [
                0,
                1,
                2
            ]
        }
    ],
    "nodes" : [
        {
            "name" : "Box001",
            "scale" : [
                0.009431467391550541,
                0.009431467391550541,
                0.009431467391550541
            ],
            "mesh" : 0
        },
        {
            "name" : "Lamp",
            "rotation" : [
                0.16907575726509094,
                0.7558803558349609,
                -0.27217137813568115,
                0.570947527885437
            ],
            "translation" : [
                4.076245307922363,
                5.903861999511719,
                -1.0054539442062378
            ]
        },
        {
            "name" : "Camera",
            "rotation" : [
                0.483536034822464,
                0.33687159419059753,
                -0.20870360732078552,
                0.7804827094078064
            ],
            "translation" : [
                7.481131553649902,
                5.34366512298584,
                6.5076398849487305
            ]
        }
    ],
    "meshes" : [
        {
            "name" : "Box001Mesh",
            "primitives" : [
                {
                    "indices" : 3,
                    "attributes" : {
                        "POSITION" : 0,
                        "NORMAL" : 1,
                        "TEXCOORD_0" : 2
                    }
                }
            ]
        }
    ],
    "accessors" : [
        {
            "type" : "VEC3",
            "max" : [
                126.73371124267578,
                43.249942779541016,
                50.789794921875
            ],
            "bufferView" : 0,
            "componentType" : 5126,
            "count" : 188,
            "min" : [
                -126.73371887207031,
                -43.24993133544922,
                -50.789794921875
            ]
        },
        {
            "bufferView" : 1,
            "type" : "VEC3",
            "count" : 188,
            "componentType" : 5126
        },
        {
            "bufferView" : 2,
            "type" : "VEC2",
            "count" : 188,
            "componentType" : 5126
        },
        {
            "bufferView" : 3,
            "type" : "SCALAR",
            "count" : 444,
            "componentType" : 5123
        }
    ],
    "bufferViews" : [
        {
            "buffer" : 0,
            "byteOffset" : 0,
            "byteLength" : 2256
        },
        {
            "buffer" : 0,
            "byteOffset" : 2256,
            "byteLength" : 2256
        },
        {
            "buffer" : 0,
            "byteOffset" : 4512,
            "byteLength" : 1504
        },
        {
            "buffer" : 0,
            "byteOffset" : 6016,
            "byteLength" : 888
        }
    ],
    "buffers" : [
        {
            "byteLength" : 6904,
            "uri" : "data:application/octet-stream;base64,"
        }
    ]
}
