{
    "asset" : {
        "generator" : "Khronos glTF Blender I/O v0.9.36",
        "version" : "2.0"
    },
    "scene" : 0,
    "scenes" : [
        {
            "name" : "Scene",
            "nodes" : [
                1,
                2,
                3
            ]
        }
    ],
    "nodes" : [
        {
            "translation" : [
                0,
                27.7802734375,
                -1.52587890625e-05
            ],
            "name" : "Object002",
            "mesh" : 0,
            "scale" : [
                0.5277433395385742,
                0.5277433395385742,
                0.5138702988624573
            ]
        },
        {
            "translation" : [
                0,
                0.0031108574476093054,
                -0.01565689779818058
            ],
            "name" : "Group001",
            "scale" : [
                0.0028506163507699966,
                0.0028506163507699966,
                0.0028506163507699966
            ],
            "children" : [
                0
            ]
        },
        {
            "rotation" : [
                0.16907575726509094,
                0.7558803558349609,
                -0.27217137813568115,
                0.570947527885437
            ],
            "translation" : [
                4.076245307922363,
                5.903861999511719,
                -1.0054539442062378
            ],
            "name" : "Lamp"
        },
        {
            "rotation" : [
                0.483536034822464,
                0.33687159419059753,
                -0.20870360732078552,
                0.7804827094078064
            ],
            "translation" : [
                7.481131553649902,
                5.34366512298584,
                6.5076398849487305
            ],
            "name" : "Camera"
        }
    ],
    "materials" : [
        {
            "pbrMetallicRoughness" : {
                "baseColorTexture" : {
                    "texCoord" : 0,
                    "index" : 0
                }
            },
            "name" : "01 - Default"
        }
    ],
    "meshes" : [
        {
            "primitives" : [
                {
                    "indices" : 3,
                    "material" : 0,
                    "attributes" : {
                        "NORMAL" : 0,
                        "TEXCOORD_0" : 1,
                        "POSITION" : 2
                    }
                }
            ],
            "name" : "\u672a\u547d\u540d"
        }
    ],
    "textures" : [
        {
            "sampler" : 0,
            "source" : 0
        }
    ],
    "images" : [
        {
            "mimeType" : "image/jpeg",
            "name" : "Map #2070297921",
            "bufferView" : 4
        }
    ],
    "accessors" : [
        {
            "componentType" : 5126,
            "type" : "VEC3",
            "count" : 18270,
            "bufferView" : 0
        },
        {
            "componentType" : 5126,
            "type" : "VEC2",
            "count" : 18270,
            "bufferView" : 1
        },
        {
            "componentType" : 5126,
            "type" : "VEC3",
            "max" : [
                47.7116584777832,
                -12.152643203735352,
                47.713966369628906
            ],
            "count" : 18270,
            "min" : [
                -47.71165466308594,
                -93.05284118652344,
                -47.71394729614258
            ],
            "bufferView" : 2
        },
        {
            "componentType" : 5123,
            "type" : "SCALAR",
            "count" : 83745,
            "bufferView" : 3
        }
    ],
    "bufferViews" : [
        {
            "byteOffset" : 0,
            "byteLength" : 219240,
            "buffer" : 0
        },
        {
            "byteOffset" : 219240,
            "byteLength" : 146160,
            "buffer" : 0
        },
        {
            "byteOffset" : 365400,
            "byteLength" : 219240,
            "buffer" : 0
        },
        {
            "byteOffset" : 584640,
            "byteLength" : 167490,
            "buffer" : 0
        },
        {
            "byteOffset" : 752132,
            "byteLength" : 57400,
            "buffer" : 0
        }
    ],
    "samplers" : [
        {
            "wrapS" : 10497,
            "magFilter" : 9729,
            "minFilter" : 9986,
            "wrapT" : 10497
        }
    ],
    "buffers" : [
        {
            "byteLength" : 809532,
            "uri" : "data:application/octet-stream;base64,"
        }
    ]
}
