{
    "asset" : {
        "version" : "2.0",
        "generator" : "Khronos glTF Blender I/O v0.9.36"
    },
    "scene" : 0,
    "scenes" : [
        {
            "name" : "Scene",
            "nodes" : [
                0,
                1,
                2
            ]
        }
    ],
    "nodes" : [
        {
            "scale" : [
                0.10000000149011612,
                0.10000000149011612,
                0.10000000149011612
            ],
            "name" : "qiangji",
            "mesh" : 0
        },
        {
            "rotation" : [
                0.16907575726509094,
                0.7558803558349609,
                -0.27217137813568115,
                0.570947527885437
            ],
            "name" : "Lamp",
            "translation" : [
                4.076245307922363,
                5.903861999511719,
                -1.0054539442062378
            ]
        },
        {
            "rotation" : [
                0.483536034822464,
                0.33687159419059753,
                -0.20870360732078552,
                0.7804827094078064
            ],
            "name" : "Camera",
            "translation" : [
                7.481131553649902,
                5.34366512298584,
                6.5076398849487305
            ]
        }
    ],
    "meshes" : [
        {
            "primitives" : [
                {
                    "attributes" : {
                        "NORMAL" : 0,
                        "TEXCOORD_0" : 1,
                        "POSITION" : 2
                    },
                    "indices" : 3
                }
            ],
            "name" : "qiangji"
        }
    ],
    "accessors" : [
        {
            "type" : "VEC3",
            "count" : 429,
            "bufferView" : 0,
            "componentType" : 5126
        },
        {
            "type" : "VEC2",
            "count" : 429,
            "bufferView" : 1,
            "componentType" : 5126
        },
        {
            "type" : "VEC3",
            "count" : 429,
            "min" : [
                -24.875829696655273,
                0.0010818849550560117,
                -11.577420234680176
            ],
            "componentType" : 5126,
            "max" : [
                39.971614837646484,
                20.596792221069336,
                11.575289726257324
            ],
            "bufferView" : 2
        },
        {
            "type" : "SCALAR",
            "count" : 468,
            "bufferView" : 3,
            "componentType" : 5123
        }
    ],
    "bufferViews" : [
        {
            "buffer" : 0,
            "byteOffset" : 0,
            "byteLength" : 5148
        },
        {
            "buffer" : 0,
            "byteOffset" : 5148,
            "byteLength" : 3432
        },
        {
            "buffer" : 0,
            "byteOffset" : 8580,
            "byteLength" : 5148
        },
        {
            "buffer" : 0,
            "byteOffset" : 13728,
            "byteLength" : 936
        }
    ],
    "buffers" : [
        {
            "uri" : "data:application/octet-stream;base64,",
            "byteLength" : 14664
        }
    ]
}
