{
    "asset" : {
        "version" : "2.0",
        "generator" : "Khronos glTF Blender I/O v0.9.36"
    },
    "scene" : 0,
    "scenes" : [
        {
            "name" : "Scene",
            "nodes" : [
                0,
                1,
                2
            ]
        }
    ],
    "nodes" : [
        {
            "name" : "qiuji",
            "scale" : [
                0.10000000149011612,
                0.10000000149011612,
                0.10000000149011612
            ],
            "mesh" : 0
        },
        {
            "translation" : [
                4.076245307922363,
                5.903861999511719,
                -1.0054539442062378
            ],
            "name" : "Lamp",
            "rotation" : [
                0.16907575726509094,
                0.7558803558349609,
                -0.27217137813568115,
                0.570947527885437
            ]
        },
        {
            "translation" : [
                7.481131553649902,
                5.34366512298584,
                6.5076398849487305
            ],
            "name" : "Camera",
            "rotation" : [
                0.483536034822464,
                0.33687159419059753,
                -0.20870360732078552,
                0.7804827094078064
            ]
        }
    ],
    "meshes" : [
        {
            "name" : "qiuji1",
            "primitives" : [
                {
                    "attributes" : {
                        "NORMAL" : 0,
                        "TEXCOORD_0" : 1,
                        "POSITION" : 2
                    },
                    "indices" : 3
                }
            ]
        }
    ],
    "accessors" : [
        {
            "type" : "VEC3",
            "componentType" : 5126,
            "count" : 1693,
            "bufferView" : 0
        },
        {
            "type" : "VEC2",
            "componentType" : 5126,
            "count" : 1693,
            "bufferView" : 1
        },
        {
            "bufferView" : 2,
            "min" : [
                -18.32520866394043,
                -16.002674102783203,
                -18.327205657958984
            ],
            "type" : "VEC3",
            "componentType" : 5126,
            "count" : 1693,
            "max" : [
                18.327207565307617,
                5.572195053100586,
                18.325210571289062
            ]
        },
        {
            "type" : "SCALAR",
            "componentType" : 5123,
            "count" : 1914,
            "bufferView" : 3
        }
    ],
    "bufferViews" : [
        {
            "byteLength" : 20316,
            "byteOffset" : 0,
            "buffer" : 0
        },
        {
            "byteLength" : 13544,
            "byteOffset" : 20316,
            "buffer" : 0
        },
        {
            "byteLength" : 20316,
            "byteOffset" : 33860,
            "buffer" : 0
        },
        {
            "byteLength" : 3828,
            "byteOffset" : 54176,
            "buffer" : 0
        }
    ],
    "buffers" : [
        {
            "byteLength" : 58004,
            "uri" : "data:application/octet-stream;base64,"
        }
    ]
}
