{
    "asset" : {
        "version" : "2.0",
        "generator" : "Khronos glTF Blender I/O v0.9.36"
    },
    "scene" : 0,
    "scenes" : [
        {
            "nodes" : [
                0,
                1,
                2
            ],
            "name" : "Scene"
        }
    ],
    "nodes" : [
        {
            "translation" : [
                -0.01624082401394844,
                0.003574360627681017,
                -0.0012315268395468593
            ],
            "mesh" : 0,
            "scale" : [
                0.0010000000474974513,
                0.0010000000474974513,
                0.0010000000474974513
            ],
            "rotation" : [
                0,
                0,
                -0.14892058074474335,
                0.9888491630554199
            ],
            "name" : "shiwaiqiangji"
        },
        {
            "translation" : [
                4.076245307922363,
                5.903861999511719,
                -1.0054539442062378
            ],
            "rotation" : [
                0.16907575726509094,
                0.7558803558349609,
                -0.27217137813568115,
                0.570947527885437
            ],
            "name" : "Lamp"
        },
        {
            "translation" : [
                7.481131553649902,
                5.34366512298584,
                6.5076398849487305
            ],
            "rotation" : [
                0.483536034822464,
                0.33687159419059753,
                -0.20870360732078552,
                0.7804827094078064
            ],
            "name" : "Camera"
        }
    ],
    "meshes" : [
        {
            "primitives" : [
                {
                    "attributes" : {
                        "TEXCOORD_0" : 0,
                        "POSITION" : 1,
                        "NORMAL" : 2
                    },
                    "indices" : 3
                }
            ],
            "name" : "shiwaiqiangji"
        }
    ],
    "accessors" : [
        {
            "count" : 70,
            "type" : "VEC2",
            "bufferView" : 0,
            "componentType" : 5126
        },
        {
            "count" : 70,
            "type" : "VEC3",
            "componentType" : 5126,
            "min" : [
                -13.310176849365234,
                0,
                -13.42364501953125
            ],
            "bufferView" : 1,
            "max" : [
                56.64291000366211,
                20.93596076965332,
                13.42364501953125
            ]
        },
        {
            "count" : 70,
            "type" : "VEC3",
            "bufferView" : 2,
            "componentType" : 5126
        },
        {
            "count" : 108,
            "type" : "SCALAR",
            "bufferView" : 3,
            "componentType" : 5123
        }
    ],
    "bufferViews" : [
        {
            "byteOffset" : 0,
            "byteLength" : 560,
            "buffer" : 0
        },
        {
            "byteOffset" : 560,
            "byteLength" : 840,
            "buffer" : 0
        },
        {
            "byteOffset" : 1400,
            "byteLength" : 840,
            "buffer" : 0
        },
        {
            "byteOffset" : 2240,
            "byteLength" : 216,
            "buffer" : 0
        }
    ],
    "buffers" : [
        {
            "uri" : "data:application/octet-stream;base64,",
            "byteLength" : 2456
        }
    ]
}
