{
    "asset" : {
        "version" : "2.0",
        "generator" : "Khronos glTF Blender I/O v0.9.36"
    },
    "scene" : 0,
    "scenes" : [
        {
            "nodes" : [
                0,
                1,
                2
            ],
            "name" : "Scene"
        }
    ],
    "nodes" : [
        {
            "translation" : [
                -0.00043103398638777435,
                0,
                0.00043103459756821394
            ],
            "mesh" : 0,
            "scale" : [
                0.029618652537465096,
                0.012040707282721996,
                0.029618652537465096
            ],
            "name" : "yangan"
        },
        {
            "translation" : [
                4.076245307922363,
                5.903861999511719,
                -1.0054539442062378
            ],
            "rotation" : [
                0.16907575726509094,
                0.7558803558349609,
                -0.27217137813568115,
                0.570947527885437
            ],
            "name" : "Lamp"
        },
        {
            "translation" : [
                7.481131553649902,
                5.34366512298584,
                6.5076398849487305
            ],
            "rotation" : [
                0.483536034822464,
                0.33687159419059753,
                -0.20870360732078552,
                0.7804827094078064
            ],
            "name" : "Camera"
        }
    ],
    "meshes" : [
        {
            "primitives" : [
                {
                    "attributes" : {
                        "TEXCOORD_0" : 0,
                        "POSITION" : 1,
                        "NORMAL" : 2
                    },
                    "indices" : 3
                }
            ],
            "name" : "yangan"
        }
    ],
    "accessors" : [
        {
            "count" : 508,
            "type" : "VEC2",
            "bufferView" : 0,
            "componentType" : 5126
        },
        {
            "count" : 508,
            "type" : "VEC3",
            "componentType" : 5126,
            "min" : [
                -8.349898338317871,
                -9.65142822265625,
                -8.349898338317871
            ],
            "bufferView" : 1,
            "max" : [
                8.349898338317871,
                7.960590362548828,
                8.349898338317871
            ]
        },
        {
            "count" : 508,
            "type" : "VEC3",
            "bufferView" : 2,
            "componentType" : 5126
        },
        {
            "count" : 1500,
            "type" : "SCALAR",
            "bufferView" : 3,
            "componentType" : 5123
        }
    ],
    "bufferViews" : [
        {
            "byteOffset" : 0,
            "byteLength" : 4064,
            "buffer" : 0
        },
        {
            "byteOffset" : 4064,
            "byteLength" : 6096,
            "buffer" : 0
        },
        {
            "byteOffset" : 10160,
            "byteLength" : 6096,
            "buffer" : 0
        },
        {
            "byteOffset" : 16256,
            "byteLength" : 3000,
            "buffer" : 0
        }
    ],
    "buffers" : [
        {
            "uri" : "data:application/octet-stream;base64,",
            "byteLength" : 19256
        }
    ]
}
