{
    "asset" : {
        "generator" : "Khronos glTF Blender I/O v0.9.36",
        "version" : "2.0"
    },
    "scene" : 0,
    "scenes" : [
        {
            "name" : "Scene",
            "nodes" : [
                1,
                2,
                3,
                4
            ]
        }
    ],
    "nodes" : [
        {
            "translation" : [
                0,
                40.742488861083984,
                0
            ],
            "name" : "\u672a\u547d\u540d",
            "mesh" : 0
        },
        {
            "translation" : [
                4.817224180442281e-05,
                0.00012739180237986147,
                -3.918721995432861e-05
            ],
            "name" : "Object002",
            "scale" : [
                0.000527743308339268,
                0.000527743308339268,
                0.0005138703272677958
            ],
            "children" : [
                0
            ]
        },
        {
            "name" : "EnvironmentAmbientLight",
            "scale" : [
                0.0010000000474974513,
                0.0010000000474974513,
                0.0010000000474974513
            ]
        },
        {
            "rotation" : [
                0.16907575726509094,
                0.7558803558349609,
                -0.27217137813568115,
                0.570947527885437
            ],
            "translation" : [
                4.076245307922363,
                5.903861999511719,
                -1.0054539442062378
            ],
            "name" : "Lamp"
        },
        {
            "rotation" : [
                0.483536034822464,
                0.33687159419059753,
                -0.20870360732078552,
                0.7804827094078064
            ],
            "translation" : [
                7.481131553649902,
                5.34366512298584,
                6.5076398849487305
            ],
            "name" : "Camera"
        }
    ],
    "materials" : [
        {
            "pbrMetallicRoughness" : {
                "baseColorTexture" : {
                    "texCoord" : 0,
                    "index" : 0
                }
            },
            "name" : "_9_-_Default"
        }
    ],
    "meshes" : [
        {
            "primitives" : [
                {
                    "indices" : 3,
                    "material" : 0,
                    "attributes" : {
                        "NORMAL" : 0,
                        "TEXCOORD_0" : 1,
                        "POSITION" : 2
                    }
                }
            ],
            "name" : "Object002"
        }
    ],
    "textures" : [
        {
            "sampler" : 0,
            "source" : 0
        }
    ],
    "images" : [
        {
            "mimeType" : "image/jpeg",
            "name" : "0_yinpinqiuji.jpg",
            "bufferView" : 4
        }
    ],
    "accessors" : [
        {
            "componentType" : 5126,
            "type" : "VEC3",
            "count" : 32295,
            "bufferView" : 0
        },
        {
            "componentType" : 5126,
            "type" : "VEC2",
            "count" : 32295,
            "bufferView" : 1
        },
        {
            "componentType" : 5126,
            "type" : "VEC3",
            "max" : [
                48.0765380859375,
                -3.6141600503469817e-06,
                48.07368850708008
            ],
            "count" : 32295,
            "min" : [
                -48.0765380859375,
                -81.48497009277344,
                -48.073699951171875
            ],
            "bufferView" : 2
        },
        {
            "componentType" : 5123,
            "type" : "SCALAR",
            "count" : 120036,
            "bufferView" : 3
        }
    ],
    "bufferViews" : [
        {
            "byteOffset" : 0,
            "byteLength" : 387540,
            "buffer" : 0
        },
        {
            "byteOffset" : 387540,
            "byteLength" : 258360,
            "buffer" : 0
        },
        {
            "byteOffset" : 645900,
            "byteLength" : 387540,
            "buffer" : 0
        },
        {
            "byteOffset" : 1033440,
            "byteLength" : 240072,
            "buffer" : 0
        },
        {
            "byteOffset" : 1273512,
            "byteLength" : 75157,
            "buffer" : 0
        }
    ],
    "samplers" : [
        {
            "wrapS" : 10497,
            "magFilter" : 9729,
            "minFilter" : 9986,
            "wrapT" : 10497
        }
    ],
    "buffers" : [
        {
            "byteLength" : 1348672,
            "uri" : "data:application/octet-stream;base64,"
        }
    ]
}
